<mxfile host="app.diagrams.net" agent="Mozilla/5.0 (Windows NT 10.0; Win64; x64) AppleWebKit/537.36 (KHTML, like Gecko) Chrome/131.0.0.0 Safari/537.36" version="26.0.4">
  <diagram id="6sqXcZv842MMHSqY-emc" name="req">
    <mxGraphModel dx="6357" dy="3689" grid="1" gridSize="10" guides="1" tooltips="1" connect="1" arrows="1" fold="1" page="1" pageScale="1" pageWidth="827" pageHeight="1169" math="0" shadow="0">
      <root>
        <mxCell id="mcRKk9l3YKuYOQQODkug-0" />
        <mxCell id="mcRKk9l3YKuYOQQODkug-1" parent="mcRKk9l3YKuYOQQODkug-0" />
        <mxCell id="mcRKk9l3YKuYOQQODkug-2" value="&lt;p style=&quot;margin: 0px ; margin-top: 4px ; text-align: center&quot;&gt;&amp;lt;&amp;lt;requirement&amp;gt;&amp;gt;&lt;br&gt;&lt;b&gt;Application&lt;/b&gt;&lt;/p&gt;&lt;hr&gt;&lt;p&gt;&lt;/p&gt;&lt;p style=&quot;margin: 0px ; margin-left: 8px ; text-align: left&quot;&gt;Id=&quot;1&quot;&lt;br&gt;&lt;/p&gt;&lt;p style=&quot;margin: 0px ; margin-left: 8px ; text-align: left&quot;&gt;text=&quot;&lt;span style=&quot;background-color: transparent;&quot;&gt;L&#39;application doit être conçue pour offrir une expérience fluide et agréable aux clients du restaurant OSusaké.&lt;/span&gt;&lt;/p&gt;&lt;p style=&quot;margin: 0px ; margin-left: 8px ; text-align: left&quot;&gt;&lt;span&gt;&quot;&lt;/span&gt;&lt;/p&gt;&lt;p style=&quot;margin: 0px ; margin-left: 8px ; text-align: left&quot;&gt;&lt;br&gt;&lt;/p&gt;" style="shape=rect;overflow=fill;html=1;whiteSpace=wrap;align=center;strokeWidth=1;fillColor=#fad9d5;strokeColor=#ae4132;gradientColor=#ffffff;" parent="mcRKk9l3YKuYOQQODkug-1" vertex="1">
          <mxGeometry x="260" y="20" width="230" height="150" as="geometry" />
        </mxCell>
        <mxCell id="mcRKk9l3YKuYOQQODkug-4" value="&lt;p style=&quot;margin: 0px ; margin-top: 4px ; text-align: center&quot;&gt;&amp;lt;&amp;lt;requirement&amp;gt;&amp;gt;&lt;br&gt;&lt;b&gt;Interface utilisateur intuitive&lt;/b&gt;&lt;/p&gt;&lt;hr&gt;&lt;p&gt;&lt;/p&gt;&lt;p style=&quot;margin: 0px ; margin-left: 8px ; text-align: left&quot;&gt;Id=&quot;1.1.&quot;&lt;br&gt;&lt;/p&gt;&lt;p style=&quot;margin: 0px ; margin-left: 8px ; text-align: left&quot;&gt;text=&quot;L&#39;application doit être simple, claire et accessible, même pour des utilisateurs non expérimentés. Design attractif avec des images et descriptions pour guider les utilisateurs.&lt;span&gt;&quot;&lt;/span&gt;&lt;/p&gt;&lt;p style=&quot;margin: 0px ; margin-left: 8px ; text-align: left&quot;&gt;&lt;br&gt;&lt;/p&gt;" style="shape=rect;overflow=fill;html=1;whiteSpace=wrap;align=center;strokeWidth=1;fillColor=#fad9d5;strokeColor=#ae4132;gradientColor=#ffffff;" parent="mcRKk9l3YKuYOQQODkug-1" vertex="1">
          <mxGeometry x="-520" y="-60" width="200" height="170" as="geometry" />
        </mxCell>
        <mxCell id="mcRKk9l3YKuYOQQODkug-9" value="&lt;p style=&quot;margin: 0px ; margin-top: 4px ; text-align: center&quot;&gt;&amp;lt;&amp;lt;requirement&amp;gt;&amp;gt;&lt;br&gt;&lt;b&gt;Sécurisation des connexions réseau&lt;/b&gt;&lt;/p&gt;&lt;hr&gt;&lt;p&gt;&lt;/p&gt;&lt;p style=&quot;margin: 0px ; margin-left: 8px ; text-align: left&quot;&gt;Id=&quot;2.1.&quot;&lt;br&gt;&lt;/p&gt;&lt;p style=&quot;margin: 0px ; margin-left: 8px ; text-align: left&quot;&gt;text=&quot;Mettre en œuvre des mesures de sécurité pour répondre aux contraintes réglementaires sur la protection des données.&lt;span&gt;&quot;&lt;/span&gt;&lt;/p&gt;&lt;p style=&quot;margin: 0px ; margin-left: 8px ; text-align: left&quot;&gt;&lt;br&gt;&lt;/p&gt;" style="shape=rect;overflow=fill;html=1;whiteSpace=wrap;align=center;strokeWidth=1;fillColor=#fad9d5;strokeColor=#ae4132;gradientColor=#ffffff;" parent="mcRKk9l3YKuYOQQODkug-1" vertex="1">
          <mxGeometry x="-650" y="420" width="220" height="150" as="geometry" />
        </mxCell>
        <mxCell id="mcRKk9l3YKuYOQQODkug-13" value="&lt;p style=&quot;margin: 0px ; margin-top: 4px ; text-align: center&quot;&gt;&amp;lt;&amp;lt;requirement&amp;gt;&amp;gt;&lt;br&gt;&lt;b&gt;&amp;nbsp;Assurer la fiabilité et la sécurité&lt;/b&gt;&lt;/p&gt;&lt;hr&gt;&lt;p&gt;&lt;/p&gt;&lt;p style=&quot;margin: 0px ; margin-left: 8px ; text-align: left&quot;&gt;Id=&quot;2.&quot;&lt;br&gt;&lt;/p&gt;&lt;p style=&quot;margin: 0px ; margin-left: 8px ; text-align: left&quot;&gt;text=&quot;Le système doit garantir la sécurité des données utilisateur et être robuste face aux pannes.&lt;span&gt;&quot;&lt;/span&gt;&lt;/p&gt;&lt;p style=&quot;margin: 0px ; margin-left: 8px ; text-align: left&quot;&gt;&lt;br&gt;&lt;/p&gt;" style="shape=rect;overflow=fill;html=1;whiteSpace=wrap;align=center;strokeWidth=1;fillColor=#fad9d5;strokeColor=#ae4132;gradientColor=#ffffff;" parent="mcRKk9l3YKuYOQQODkug-1" vertex="1">
          <mxGeometry x="-310" y="410" width="210" height="150" as="geometry" />
        </mxCell>
        <mxCell id="kWydDfq1rh9on7qYREXL-1" value="&lt;p style=&quot;margin: 0px ; margin-top: 4px ; text-align: center&quot;&gt;&amp;lt;&amp;lt;requirement&amp;gt;&amp;gt;&lt;br&gt;&lt;b&gt;Gestion des permissions&lt;/b&gt;&lt;/p&gt;&lt;hr&gt;&lt;p&gt;&lt;/p&gt;&lt;p style=&quot;margin: 0px ; margin-left: 8px ; text-align: left&quot;&gt;Id=&quot;2.2.&quot;&lt;br&gt;&lt;/p&gt;&lt;p style=&quot;margin: 0px ; margin-left: 8px ; text-align: left&quot;&gt;text=&quot;Les permissions doivent être testées pour garantir un accès sécurisé.&lt;span&gt;&quot;&lt;/span&gt;&lt;/p&gt;&lt;p style=&quot;margin: 0px ; margin-left: 8px ; text-align: left&quot;&gt;&lt;br&gt;&lt;/p&gt;" style="shape=rect;overflow=fill;html=1;whiteSpace=wrap;align=center;strokeWidth=1;fillColor=#fad9d5;strokeColor=#ae4132;gradientColor=#ffffff;" parent="mcRKk9l3YKuYOQQODkug-1" vertex="1">
          <mxGeometry x="-570" y="670" width="170" height="150" as="geometry" />
        </mxCell>
        <mxCell id="kWydDfq1rh9on7qYREXL-2" value="&amp;lt;&amp;lt;refine&amp;gt;&amp;gt;" style="edgeStyle=none;html=1;endArrow=open;endSize=12;dashed=1;verticalAlign=bottom;entryX=0;entryY=0;entryDx=0;entryDy=0;exitX=1;exitY=1;exitDx=0;exitDy=0;" parent="mcRKk9l3YKuYOQQODkug-1" source="mcRKk9l3YKuYOQQODkug-4" target="mcRKk9l3YKuYOQQODkug-2" edge="1">
          <mxGeometry x="-0.1429" y="30" width="160" relative="1" as="geometry">
            <mxPoint x="160" y="90" as="sourcePoint" />
            <mxPoint x="170" y="100" as="targetPoint" />
            <mxPoint as="offset" />
          </mxGeometry>
        </mxCell>
        <mxCell id="kWydDfq1rh9on7qYREXL-3" value="&amp;lt;&amp;lt;verify&amp;gt;&amp;gt;" style="edgeStyle=none;html=1;endArrow=open;endSize=12;dashed=1;verticalAlign=bottom;entryX=0.022;entryY=0.667;entryDx=0;entryDy=0;entryPerimeter=0;exitX=1;exitY=0.25;exitDx=0;exitDy=0;" parent="mcRKk9l3YKuYOQQODkug-1" source="mcRKk9l3YKuYOQQODkug-3" target="mcRKk9l3YKuYOQQODkug-2" edge="1">
          <mxGeometry x="-0.3144" y="-12" width="160" relative="1" as="geometry">
            <mxPoint x="220" y="140" as="sourcePoint" />
            <mxPoint x="370.0033333333332" y="100" as="targetPoint" />
            <mxPoint as="offset" />
          </mxGeometry>
        </mxCell>
        <mxCell id="mcRKk9l3YKuYOQQODkug-3" value="&lt;p style=&quot;margin: 0px ; margin-top: 4px ; text-align: center&quot;&gt;&amp;lt;&amp;lt;requirement&amp;gt;&amp;gt;&lt;br&gt;&lt;b&gt;Optimisation des commandes&lt;/b&gt;&lt;/p&gt;&lt;hr&gt;&lt;p&gt;&lt;/p&gt;&lt;p style=&quot;margin: 0px ; margin-left: 8px ; text-align: left&quot;&gt;Id=&quot;1.2.&quot;&lt;br&gt;&lt;/p&gt;&lt;p style=&quot;margin: 0px ; margin-left: 8px ; text-align: left&quot;&gt;text=&quot;Les commandes doivent être transmises automatiquement à la cuisine et au bar pour minimiser les erreurs humaines et accélérer le service.&lt;span&gt;&quot;&lt;/span&gt;&lt;/p&gt;&lt;p style=&quot;margin: 0px ; margin-left: 8px ; text-align: left&quot;&gt;&lt;br&gt;&lt;/p&gt;" style="shape=rect;overflow=fill;html=1;whiteSpace=wrap;align=center;strokeWidth=1;fillColor=#fad9d5;strokeColor=#ae4132;gradientColor=#ffffff;" parent="mcRKk9l3YKuYOQQODkug-1" vertex="1">
          <mxGeometry x="-620" y="190" width="200" height="150" as="geometry" />
        </mxCell>
        <mxCell id="kWydDfq1rh9on7qYREXL-7" value="&amp;lt;&amp;lt;deriveRqt&amp;gt;&amp;gt;" style="edgeStyle=none;html=1;endArrow=open;endSize=12;dashed=1;verticalAlign=bottom;entryX=0;entryY=0.25;entryDx=0;entryDy=0;exitX=1;exitY=0.25;exitDx=0;exitDy=0;" parent="mcRKk9l3YKuYOQQODkug-1" source="mcRKk9l3YKuYOQQODkug-9" target="mcRKk9l3YKuYOQQODkug-13" edge="1">
          <mxGeometry x="-0.1429" y="30" width="160" relative="1" as="geometry">
            <mxPoint x="-450.0000000000002" y="690" as="sourcePoint" />
            <mxPoint x="-450.0000000000002" y="610" as="targetPoint" />
            <mxPoint as="offset" />
          </mxGeometry>
        </mxCell>
        <mxCell id="kWydDfq1rh9on7qYREXL-8" value="&amp;lt;&amp;lt;verify&amp;gt;&amp;gt;" style="edgeStyle=none;html=1;endArrow=open;endSize=12;dashed=1;verticalAlign=bottom;exitX=0.5;exitY=0;exitDx=0;exitDy=0;entryX=0.25;entryY=1;entryDx=0;entryDy=0;" parent="mcRKk9l3YKuYOQQODkug-1" source="kWydDfq1rh9on7qYREXL-1" target="mcRKk9l3YKuYOQQODkug-13" edge="1">
          <mxGeometry x="-0.3144" y="-12" width="160" relative="1" as="geometry">
            <mxPoint x="-290" y="690" as="sourcePoint" />
            <mxPoint x="-309.9966666666668" y="610" as="targetPoint" />
            <mxPoint as="offset" />
          </mxGeometry>
        </mxCell>
        <mxCell id="kWydDfq1rh9on7qYREXL-9" style="rounded=0;orthogonalLoop=1;jettySize=auto;html=1;startArrow=circlePlus;startFill=0;endArrow=none;endFill=0;exitX=0;exitY=1;exitDx=0;exitDy=0;entryX=1;entryY=0.5;entryDx=0;entryDy=0;" parent="mcRKk9l3YKuYOQQODkug-1" source="mcRKk9l3YKuYOQQODkug-2" target="mcRKk9l3YKuYOQQODkug-13" edge="1">
          <mxGeometry relative="1" as="geometry">
            <mxPoint x="-437.5" y="100.00000000000091" as="sourcePoint" />
            <mxPoint x="-300" y="210" as="targetPoint" />
          </mxGeometry>
        </mxCell>
        <mxCell id="kWydDfq1rh9on7qYREXL-10" value="&lt;p style=&quot;margin: 0px ; margin-top: 4px ; text-align: center&quot;&gt;&amp;lt;&amp;lt;requirement&amp;gt;&amp;gt;&lt;br&gt;&lt;b&gt;&amp;nbsp;Conception de l&#39;infrastructure réseau&lt;/b&gt;&lt;/p&gt;&lt;hr&gt;&lt;p&gt;&lt;/p&gt;&lt;p style=&quot;margin: 0px ; margin-left: 8px ; text-align: left&quot;&gt;Id=&quot;3&quot;&lt;br&gt;&lt;/p&gt;&lt;p style=&quot;margin: 0px ; margin-left: 8px ; text-align: left&quot;&gt;text=&quot;Fournir une infrastructure réseau fiable qui assure la connectivité entre les différents appareils.&lt;span&gt;&quot;&lt;/span&gt;&lt;/p&gt;&lt;p style=&quot;margin: 0px ; margin-left: 8px ; text-align: left&quot;&gt;&lt;br&gt;&lt;/p&gt;" style="shape=rect;overflow=fill;html=1;whiteSpace=wrap;align=center;strokeWidth=1;fillColor=#fad9d5;strokeColor=#ae4132;gradientColor=#ffffff;" parent="mcRKk9l3YKuYOQQODkug-1" vertex="1">
          <mxGeometry x="-80" y="680" width="230" height="150" as="geometry" />
        </mxCell>
        <mxCell id="kWydDfq1rh9on7qYREXL-11" value="&lt;p style=&quot;margin: 0px ; margin-top: 4px ; text-align: center&quot;&gt;&amp;lt;&amp;lt;requirement&amp;gt;&amp;gt;&lt;br&gt;&lt;b&gt;&amp;nbsp;&lt;/b&gt;&lt;span style=&quot;background-color: transparent;&quot;&gt;&lt;b&gt;Serveur Web et Base de Données&lt;/b&gt;&lt;/span&gt;&lt;/p&gt;&lt;hr&gt;&lt;p&gt;&lt;/p&gt;&lt;p style=&quot;margin: 0px ; margin-left: 8px ; text-align: left&quot;&gt;Id=&quot;4&quot;&lt;br&gt;&lt;/p&gt;&lt;p style=&quot;margin: 0px ; margin-left: 8px ; text-align: left&quot;&gt;text=&quot;Déployer un serveur web et une base de données robuste pour héberger l&#39;application et gérer les données.&lt;span&gt;&quot;&lt;/span&gt;&lt;/p&gt;&lt;p style=&quot;margin: 0px ; margin-left: 8px ; text-align: left&quot;&gt;&lt;br&gt;&lt;/p&gt;" style="shape=rect;overflow=fill;html=1;whiteSpace=wrap;align=center;strokeWidth=1;fillColor=#fad9d5;strokeColor=#ae4132;gradientColor=#ffffff;" parent="mcRKk9l3YKuYOQQODkug-1" vertex="1">
          <mxGeometry x="415" y="700" width="230" height="150" as="geometry" />
        </mxCell>
        <mxCell id="kWydDfq1rh9on7qYREXL-12" value="&lt;p style=&quot;margin: 0px ; margin-top: 4px ; text-align: center&quot;&gt;&amp;lt;&amp;lt;requirement&amp;gt;&amp;gt;&lt;br&gt;&lt;b&gt;&amp;nbsp;&lt;/b&gt;&lt;span style=&quot;background-color: transparent;&quot;&gt;&lt;b&gt;Développement de l&#39;application&lt;/b&gt;&lt;/span&gt;&lt;/p&gt;&lt;hr&gt;&lt;p&gt;&lt;/p&gt;&lt;p style=&quot;margin: 0px ; margin-left: 8px ; text-align: left&quot;&gt;Id=&quot;5&quot;&lt;br&gt;&lt;/p&gt;&lt;p style=&quot;margin: 0px ; margin-left: 8px ; text-align: left&quot;&gt;text=&quot;Concevoir et implémenter une application frontend et backend adaptée aux besoins du restaurant.&lt;span&gt;&quot;&lt;/span&gt;&lt;/p&gt;&lt;p style=&quot;margin: 0px ; margin-left: 8px ; text-align: left&quot;&gt;&lt;br&gt;&lt;/p&gt;" style="shape=rect;overflow=fill;html=1;whiteSpace=wrap;align=center;strokeWidth=1;fillColor=#fad9d5;strokeColor=#ae4132;gradientColor=#ffffff;" parent="mcRKk9l3YKuYOQQODkug-1" vertex="1">
          <mxGeometry x="987" y="680" width="230" height="150" as="geometry" />
        </mxCell>
        <mxCell id="kWydDfq1rh9on7qYREXL-13" value="&lt;p style=&quot;margin: 0px ; margin-top: 4px ; text-align: center&quot;&gt;&amp;lt;&amp;lt;requirement&amp;gt;&amp;gt;&lt;br&gt;&lt;b&gt;&amp;nbsp;&lt;/b&gt;&lt;span style=&quot;background-color: transparent;&quot;&gt;&lt;b&gt;Respect des contraintes financières&lt;/b&gt;&lt;/span&gt;&lt;/p&gt;&lt;hr&gt;&lt;p&gt;&lt;/p&gt;&lt;p style=&quot;margin: 0px ; margin-left: 8px ; text-align: left&quot;&gt;Id=&quot;6&quot;&lt;br&gt;&lt;/p&gt;&lt;p style=&quot;margin: 0px ; margin-left: 8px ; text-align: left&quot;&gt;text=&quot;Le projet doit être réalisé dans le budget limité à 200 €.&lt;span&gt;&quot;&lt;/span&gt;&lt;/p&gt;&lt;p style=&quot;margin: 0px ; margin-left: 8px ; text-align: left&quot;&gt;&lt;br&gt;&lt;/p&gt;" style="shape=rect;overflow=fill;html=1;whiteSpace=wrap;align=center;strokeWidth=1;fillColor=#fad9d5;strokeColor=#ae4132;gradientColor=#ffffff;" parent="mcRKk9l3YKuYOQQODkug-1" vertex="1">
          <mxGeometry x="1300" y="585" width="230" height="150" as="geometry" />
        </mxCell>
        <mxCell id="kWydDfq1rh9on7qYREXL-15" value="&lt;p style=&quot;margin: 0px ; margin-top: 4px ; text-align: center&quot;&gt;&amp;lt;&amp;lt;requirement&amp;gt;&amp;gt;&lt;br&gt;&lt;b&gt;&amp;nbsp;&lt;/b&gt;&lt;span style=&quot;background-color: transparent;&quot;&gt;&lt;b&gt;Tests et validations&lt;/b&gt;&lt;/span&gt;&lt;/p&gt;&lt;hr&gt;&lt;p&gt;&lt;/p&gt;&lt;p style=&quot;margin: 0px ; margin-left: 8px ; text-align: left&quot;&gt;Id=&quot;8&quot;&lt;br&gt;&lt;/p&gt;&lt;p style=&quot;margin: 0px ; margin-left: 8px ; text-align: left&quot;&gt;text=&quot;&amp;nbsp;Garantir le bon fonctionnement du système avec des tests rigoureux.&lt;span&gt;&quot;&lt;/span&gt;&lt;/p&gt;&lt;p style=&quot;margin: 0px ; margin-left: 8px ; text-align: left&quot;&gt;&lt;br&gt;&lt;/p&gt;" style="shape=rect;overflow=fill;html=1;whiteSpace=wrap;align=center;strokeWidth=1;fillColor=#fad9d5;strokeColor=#ae4132;gradientColor=#ffffff;" parent="mcRKk9l3YKuYOQQODkug-1" vertex="1">
          <mxGeometry x="1130" y="20" width="230" height="150" as="geometry" />
        </mxCell>
        <mxCell id="kWydDfq1rh9on7qYREXL-16" value="&lt;p style=&quot;margin: 0px ; margin-top: 4px ; text-align: center&quot;&gt;&amp;lt;&amp;lt;requirement&amp;gt;&amp;gt;&lt;br&gt;&lt;b&gt;&amp;nbsp;&lt;/b&gt;&lt;span style=&quot;background-color: transparent;&quot;&gt;&lt;b&gt;Gestion des sauvegardes&lt;/b&gt;&lt;/span&gt;&lt;/p&gt;&lt;hr&gt;&lt;p&gt;&lt;/p&gt;&lt;p style=&quot;margin: 0px ; margin-left: 8px ; text-align: left&quot;&gt;Id=&quot;9&quot;&lt;br&gt;&lt;/p&gt;&lt;p style=&quot;margin: 0px ; margin-left: 8px ; text-align: left&quot;&gt;text=&quot;Automatiser la sauvegarde des données pour assurer la récupération rapide en cas de problème.&lt;span&gt;&quot;&lt;/span&gt;&lt;/p&gt;&lt;p style=&quot;margin: 0px ; margin-left: 8px ; text-align: left&quot;&gt;&lt;br&gt;&lt;/p&gt;" style="shape=rect;overflow=fill;html=1;whiteSpace=wrap;align=center;strokeWidth=1;fillColor=#fad9d5;strokeColor=#ae4132;gradientColor=#ffffff;" parent="mcRKk9l3YKuYOQQODkug-1" vertex="1">
          <mxGeometry x="990" y="-310" width="230" height="150" as="geometry" />
        </mxCell>
        <mxCell id="kWydDfq1rh9on7qYREXL-17" value="&lt;p style=&quot;margin: 0px ; margin-top: 4px ; text-align: center&quot;&gt;&amp;lt;&amp;lt;requirement&amp;gt;&amp;gt;&lt;br&gt;&lt;b&gt;&amp;nbsp;&lt;/b&gt;&lt;span style=&quot;background-color: transparent;&quot;&gt;&lt;b&gt;Surveillance et maintenance&lt;/b&gt;&lt;/span&gt;&lt;/p&gt;&lt;hr&gt;&lt;p&gt;&lt;/p&gt;&lt;p style=&quot;margin: 0px ; margin-left: 8px ; text-align: left&quot;&gt;Id=&quot;10&quot;&lt;br&gt;&lt;/p&gt;&lt;p style=&quot;margin: 0px ; margin-left: 8px ; text-align: left&quot;&gt;text=&quot;Mettre en place des outils pour surveiller les performances et assurer une maintenance régulière.&lt;span&gt;&quot;&lt;/span&gt;&lt;/p&gt;&lt;p style=&quot;margin: 0px ; margin-left: 8px ; text-align: left&quot;&gt;&lt;br&gt;&lt;/p&gt;" style="shape=rect;overflow=fill;html=1;whiteSpace=wrap;align=center;strokeWidth=1;fillColor=#fad9d5;strokeColor=#ae4132;gradientColor=#ffffff;rounded=0;" parent="mcRKk9l3YKuYOQQODkug-1" vertex="1">
          <mxGeometry x="610" y="-540" width="230" height="150" as="geometry" />
        </mxCell>
        <mxCell id="kWydDfq1rh9on7qYREXL-20" value="&lt;p style=&quot;margin: 0px ; margin-top: 4px ; text-align: center&quot;&gt;&amp;lt;&amp;lt;requirement&amp;gt;&amp;gt;&lt;br&gt;&lt;b&gt;Configuration du routeur et du switch&lt;/b&gt;&lt;/p&gt;&lt;hr&gt;&lt;p&gt;&lt;/p&gt;&lt;p style=&quot;margin: 0px ; margin-left: 8px ; text-align: left&quot;&gt;Id=&quot;3.1.&quot;&lt;br&gt;&lt;/p&gt;&lt;p style=&quot;margin: 0px ; margin-left: 8px ; text-align: left&quot;&gt;text=&quot;Configurer le réseau en définissant la mise en place du routeur et du switch pour assurer une interconnexion optimale des appareils.&lt;span&gt;&quot;&lt;/span&gt;&lt;/p&gt;&lt;p style=&quot;margin: 0px ; margin-left: 8px ; text-align: left&quot;&gt;&lt;br&gt;&lt;/p&gt;" style="shape=rect;overflow=fill;html=1;whiteSpace=wrap;align=center;strokeWidth=1;fillColor=#fad9d5;strokeColor=#ae4132;gradientColor=#ffffff;" parent="mcRKk9l3YKuYOQQODkug-1" vertex="1">
          <mxGeometry x="-300" y="920" width="220" height="150" as="geometry" />
        </mxCell>
        <mxCell id="kWydDfq1rh9on7qYREXL-21" value="&lt;p style=&quot;margin: 0px ; margin-top: 4px ; text-align: center&quot;&gt;&amp;lt;&amp;lt;requirement&amp;gt;&amp;gt;&lt;br&gt;&lt;b&gt;Point d&#39;accès Wi-Fi&lt;/b&gt;&lt;/p&gt;&lt;hr&gt;&lt;p&gt;&lt;/p&gt;&lt;p style=&quot;margin: 0px ; margin-left: 8px ; text-align: left&quot;&gt;Id=&quot;3.2.&quot;&lt;br&gt;&lt;/p&gt;&lt;p style=&quot;margin: 0px ; margin-left: 8px ; text-align: left&quot;&gt;text=&quot;La connectivité Wi-Fi doit être validée par des tests pratiques.&lt;span&gt;&quot;&lt;/span&gt;&lt;/p&gt;&lt;p style=&quot;margin: 0px ; margin-left: 8px ; text-align: left&quot;&gt;&lt;br&gt;&lt;/p&gt;" style="shape=rect;overflow=fill;html=1;whiteSpace=wrap;align=center;strokeWidth=1;fillColor=#fad9d5;strokeColor=#ae4132;gradientColor=#ffffff;" parent="mcRKk9l3YKuYOQQODkug-1" vertex="1">
          <mxGeometry x="-20" y="920" width="170" height="150" as="geometry" />
        </mxCell>
        <mxCell id="kWydDfq1rh9on7qYREXL-22" value="&lt;p style=&quot;margin: 0px ; margin-top: 4px ; text-align: center&quot;&gt;&amp;lt;&amp;lt;requirement&amp;gt;&amp;gt;&lt;br&gt;&lt;b&gt;Installation d&#39;un serveur LAMP&lt;/b&gt;&lt;/p&gt;&lt;hr&gt;&lt;p&gt;&lt;/p&gt;&lt;p style=&quot;margin: 0px ; margin-left: 8px ; text-align: left&quot;&gt;Id=&quot;4.1.&quot;&lt;br&gt;&lt;/p&gt;&lt;p style=&quot;text-align: center; margin: 0px 0px 0px 8px;&quot;&gt;text=&quot;&lt;span style=&quot;background-color: transparent; text-align: center;&quot;&gt;Spécifier les étapes nécessaires pour installer et configurer un serveur LAMP destiné à héberger l&#39;application.&quot;&lt;/span&gt;&lt;/p&gt;&lt;p style=&quot;margin: 0px ; margin-left: 8px ; text-align: left&quot;&gt;&lt;br&gt;&lt;/p&gt;" style="shape=rect;overflow=fill;html=1;whiteSpace=wrap;align=center;strokeWidth=1;fillColor=#fad9d5;strokeColor=#ae4132;gradientColor=#ffffff;" parent="mcRKk9l3YKuYOQQODkug-1" vertex="1">
          <mxGeometry x="305" y="940" width="220" height="150" as="geometry" />
        </mxCell>
        <mxCell id="kWydDfq1rh9on7qYREXL-23" value="&lt;p style=&quot;margin: 0px ; margin-top: 4px ; text-align: center&quot;&gt;&amp;lt;&amp;lt;requirement&amp;gt;&amp;gt;&lt;br&gt;&lt;b&gt;Base de données sécurisée&lt;/b&gt;&lt;/p&gt;&lt;hr&gt;&lt;p&gt;&lt;/p&gt;&lt;p style=&quot;margin: 0px ; margin-left: 8px ; text-align: left&quot;&gt;Id=&quot;4.2.&quot;&lt;br&gt;&lt;/p&gt;&lt;p style=&quot;margin: 0px ; margin-left: 8px ; text-align: left&quot;&gt;text=&quot;La sécurité de la base de données doit être testée pour protéger les informations sensibles.&lt;span&gt;&quot;&lt;/span&gt;&lt;/p&gt;&lt;p style=&quot;margin: 0px ; margin-left: 8px ; text-align: left&quot;&gt;&lt;br&gt;&lt;/p&gt;" style="shape=rect;overflow=fill;html=1;whiteSpace=wrap;align=center;strokeWidth=1;fillColor=#fad9d5;strokeColor=#ae4132;gradientColor=#ffffff;" parent="mcRKk9l3YKuYOQQODkug-1" vertex="1">
          <mxGeometry x="565" y="940" width="170" height="150" as="geometry" />
        </mxCell>
        <mxCell id="kWydDfq1rh9on7qYREXL-24" value="&lt;p style=&quot;margin: 0px ; margin-top: 4px ; text-align: center&quot;&gt;&amp;lt;&amp;lt;requirement&amp;gt;&amp;gt;&lt;br&gt;&lt;b&gt;Développement Frontend&lt;/b&gt;&lt;/p&gt;&lt;hr&gt;&lt;p&gt;&lt;/p&gt;&lt;p style=&quot;margin: 0px ; margin-left: 8px ; text-align: left&quot;&gt;Id=&quot;5.1.&quot;&lt;br&gt;&lt;/p&gt;&lt;p style=&quot;margin: 0px ; margin-left: 8px ; text-align: left&quot;&gt;text=&quot;Les tests utilisateur vérifieront l&#39;ergonomie et l&#39;affichage de l&#39;interface.&lt;span&gt;&quot;&lt;/span&gt;&lt;/p&gt;&lt;p style=&quot;margin: 0px ; margin-left: 8px ; text-align: left&quot;&gt;&lt;br&gt;&lt;/p&gt;" style="shape=rect;overflow=fill;html=1;whiteSpace=wrap;align=center;strokeWidth=1;fillColor=#fad9d5;strokeColor=#ae4132;gradientColor=#ffffff;" parent="mcRKk9l3YKuYOQQODkug-1" vertex="1">
          <mxGeometry x="890" y="920" width="220" height="150" as="geometry" />
        </mxCell>
        <mxCell id="kWydDfq1rh9on7qYREXL-25" value="&lt;p style=&quot;margin: 0px ; margin-top: 4px ; text-align: center&quot;&gt;&amp;lt;&amp;lt;requirement&amp;gt;&amp;gt;&lt;br&gt;&lt;b&gt;Développement Backend&lt;/b&gt;&lt;/p&gt;&lt;hr&gt;&lt;p&gt;&lt;/p&gt;&lt;p style=&quot;margin: 0px ; margin-left: 8px ; text-align: left&quot;&gt;Id=&quot;5.2.&quot;&lt;br&gt;&lt;/p&gt;&lt;p style=&quot;margin: 0px ; margin-left: 8px ; text-align: left&quot;&gt;text=&quot;Concevoir et développer les fonctionnalités backend, notamment pour gérer les commandes et appliquer les règles métier.&lt;span&gt;&quot;&lt;/span&gt;&lt;/p&gt;&lt;p style=&quot;margin: 0px ; margin-left: 8px ; text-align: left&quot;&gt;&lt;br&gt;&lt;/p&gt;" style="shape=rect;overflow=fill;html=1;whiteSpace=wrap;align=center;strokeWidth=1;fillColor=#fad9d5;strokeColor=#ae4132;gradientColor=#ffffff;" parent="mcRKk9l3YKuYOQQODkug-1" vertex="1">
          <mxGeometry x="1150" y="920" width="170" height="150" as="geometry" />
        </mxCell>
        <mxCell id="kWydDfq1rh9on7qYREXL-26" value="&lt;p style=&quot;margin: 0px ; margin-top: 4px ; text-align: center&quot;&gt;&amp;lt;&amp;lt;requirement&amp;gt;&amp;gt;&lt;br&gt;&lt;span style=&quot;font-size: 12px;&quot;&gt;&lt;b&gt;Tests de performance&lt;/b&gt;&lt;/span&gt;&lt;/p&gt;&lt;hr&gt;&lt;p&gt;&lt;/p&gt;&lt;p style=&quot;margin: 0px ; margin-left: 8px ; text-align: left&quot;&gt;Id=&quot;8.1.&quot;&lt;br&gt;&lt;/p&gt;&lt;p style=&quot;margin: 0px ; margin-left: 8px ; text-align: left&quot;&gt;text=&quot;Les performances doivent être validées par des simulations de charge.&lt;span&gt;&quot;&lt;/span&gt;&lt;/p&gt;&lt;p style=&quot;margin: 0px ; margin-left: 8px ; text-align: left&quot;&gt;&lt;br&gt;&lt;/p&gt;" style="shape=rect;overflow=fill;html=1;whiteSpace=wrap;align=center;strokeWidth=1;fillColor=#fad9d5;strokeColor=#ae4132;gradientColor=#ffffff;" parent="mcRKk9l3YKuYOQQODkug-1" vertex="1">
          <mxGeometry x="1470" y="-300" width="220" height="150" as="geometry" />
        </mxCell>
        <mxCell id="kWydDfq1rh9on7qYREXL-27" value="&lt;p style=&quot;margin: 0px ; margin-top: 4px ; text-align: center&quot;&gt;&amp;lt;&amp;lt;requirement&amp;gt;&amp;gt;&lt;br&gt;&lt;span style=&quot;font-size: 12px;&quot;&gt;&lt;b&gt;Tests de sécurité&lt;/b&gt;&lt;/span&gt;&lt;/p&gt;&lt;hr&gt;&lt;p&gt;&lt;/p&gt;&lt;p style=&quot;margin: 0px ; margin-left: 8px ; text-align: left&quot;&gt;Id=&quot;8.2.&quot;&lt;br&gt;&lt;/p&gt;&lt;p style=&quot;margin: 0px ; margin-left: 8px ; text-align: left&quot;&gt;text=&quot;Les vulnérabilités doivent être identifiées via des tests d&#39;intrusion.&lt;span&gt;&quot;&lt;/span&gt;&lt;/p&gt;&lt;p style=&quot;margin: 0px ; margin-left: 8px ; text-align: left&quot;&gt;&lt;br&gt;&lt;/p&gt;" style="shape=rect;overflow=fill;html=1;whiteSpace=wrap;align=center;strokeWidth=1;fillColor=#fad9d5;strokeColor=#ae4132;gradientColor=#ffffff;" parent="mcRKk9l3YKuYOQQODkug-1" vertex="1">
          <mxGeometry x="1495" y="-70" width="170" height="150" as="geometry" />
        </mxCell>
        <mxCell id="kWydDfq1rh9on7qYREXL-28" value="&lt;p style=&quot;margin: 0px ; margin-top: 4px ; text-align: center&quot;&gt;&amp;lt;&amp;lt;requirement&amp;gt;&amp;gt;&lt;br&gt;&lt;span style=&quot;font-size: 12px;&quot;&gt;&lt;b&gt;Tests de convivialité&lt;/b&gt;&lt;/span&gt;&lt;/p&gt;&lt;hr&gt;&lt;p&gt;&lt;/p&gt;&lt;p style=&quot;margin: 0px ; margin-left: 8px ; text-align: left&quot;&gt;Id=&quot;8.3.&quot;&lt;br&gt;&lt;/p&gt;&lt;p style=&quot;margin: 0px ; margin-left: 8px ; text-align: left&quot;&gt;text=&quot;Réaliser des tests d&#39;utilisabilité pour obtenir des retours d&#39;expérience et ajuster l&#39;interface en fonction si nécessaire.&lt;span&gt;&quot;&lt;/span&gt;&lt;/p&gt;&lt;p style=&quot;margin: 0px ; margin-left: 8px ; text-align: left&quot;&gt;&lt;br&gt;&lt;/p&gt;" style="shape=rect;overflow=fill;html=1;whiteSpace=wrap;align=center;strokeWidth=1;fillColor=#fad9d5;strokeColor=#ae4132;gradientColor=#ffffff;" parent="mcRKk9l3YKuYOQQODkug-1" vertex="1">
          <mxGeometry x="1470" y="130" width="220" height="150" as="geometry" />
        </mxCell>
        <mxCell id="kWydDfq1rh9on7qYREXL-29" value="&lt;p style=&quot;margin: 0px ; margin-top: 4px ; text-align: center&quot;&gt;&amp;lt;&amp;lt;requirement&amp;gt;&amp;gt;&lt;br&gt;&lt;span style=&quot;font-size: 12px;&quot;&gt;&lt;b&gt;&amp;nbsp;Procédure de restauration&lt;/b&gt;&lt;/span&gt;&lt;/p&gt;&lt;hr&gt;&lt;p&gt;&lt;/p&gt;&lt;p style=&quot;margin: 0px ; margin-left: 8px ; text-align: left&quot;&gt;Id=&quot;9.2.&quot;&lt;br&gt;&lt;/p&gt;&lt;p style=&quot;margin: 0px ; margin-left: 8px ; text-align: left&quot;&gt;text=&quot;Les étapes de restauration doivent être validées par des tests pratiques.&lt;span&gt;&quot;&lt;/span&gt;&lt;/p&gt;&lt;p style=&quot;margin: 0px ; margin-left: 8px ; text-align: left&quot;&gt;&lt;br&gt;&lt;/p&gt;" style="shape=rect;overflow=fill;html=1;whiteSpace=wrap;align=center;strokeWidth=1;fillColor=#fad9d5;strokeColor=#ae4132;gradientColor=#ffffff;" parent="mcRKk9l3YKuYOQQODkug-1" vertex="1">
          <mxGeometry x="1187" y="-500" width="170" height="150" as="geometry" />
        </mxCell>
        <mxCell id="kWydDfq1rh9on7qYREXL-30" value="&lt;p style=&quot;margin: 0px ; margin-top: 4px ; text-align: center&quot;&gt;&amp;lt;&amp;lt;requirement&amp;gt;&amp;gt;&lt;br&gt;&lt;span style=&quot;font-size: 12px;&quot;&gt;&lt;b&gt;Surveillance des ressources serveur&lt;/b&gt;&lt;/span&gt;&lt;/p&gt;&lt;hr&gt;&lt;p&gt;&lt;/p&gt;&lt;p style=&quot;margin: 0px ; margin-left: 8px ; text-align: left&quot;&gt;Id=&quot;10.1.&quot;&lt;br&gt;&lt;/p&gt;&lt;p style=&quot;margin: 0px ; margin-left: 8px ; text-align: left&quot;&gt;text=&quot;Les outils de monitoring doivent être testés pour assurer leur bon fonctionnement.&lt;span&gt;&quot;&lt;/span&gt;&lt;/p&gt;&lt;p style=&quot;margin: 0px ; margin-left: 8px ; text-align: left&quot;&gt;&lt;br&gt;&lt;/p&gt;" style="shape=rect;overflow=fill;html=1;whiteSpace=wrap;align=center;strokeWidth=1;fillColor=#fad9d5;strokeColor=#ae4132;gradientColor=#ffffff;" parent="mcRKk9l3YKuYOQQODkug-1" vertex="1">
          <mxGeometry x="710" y="-810" width="220" height="170" as="geometry" />
        </mxCell>
        <mxCell id="kWydDfq1rh9on7qYREXL-31" value="&lt;p style=&quot;margin: 0px ; margin-top: 4px ; text-align: center&quot;&gt;&amp;lt;&amp;lt;requirement&amp;gt;&amp;gt;&lt;br&gt;&lt;span style=&quot;font-size: 12px;&quot;&gt;&lt;b&gt;Documentation des mises à jour&lt;/b&gt;&lt;/span&gt;&lt;/p&gt;&lt;hr&gt;&lt;p&gt;&lt;/p&gt;&lt;p style=&quot;margin: 0px ; margin-left: 8px ; text-align: left&quot;&gt;Id=&quot;10.2.&quot;&lt;br&gt;&lt;/p&gt;&lt;p style=&quot;margin: 0px ; margin-left: 8px ; text-align: left&quot;&gt;text=&quot;Fournir des informations et des procédures détaillées pour effectuer les mises à jour du système de manière structurée.&lt;span&gt;&quot;&lt;/span&gt;&lt;/p&gt;&lt;p style=&quot;margin: 0px ; margin-left: 8px ; text-align: left&quot;&gt;&lt;br&gt;&lt;/p&gt;" style="shape=rect;overflow=fill;html=1;whiteSpace=wrap;align=center;strokeWidth=1;fillColor=#fad9d5;strokeColor=#ae4132;gradientColor=#ffffff;" parent="mcRKk9l3YKuYOQQODkug-1" vertex="1">
          <mxGeometry x="1005" y="-790" width="200" height="150" as="geometry" />
        </mxCell>
        <mxCell id="kWydDfq1rh9on7qYREXL-32" style="rounded=0;orthogonalLoop=1;jettySize=auto;html=1;startArrow=circlePlus;startFill=0;endArrow=none;endFill=0;exitX=0.25;exitY=1;exitDx=0;exitDy=0;entryX=0.5;entryY=0;entryDx=0;entryDy=0;" parent="mcRKk9l3YKuYOQQODkug-1" source="mcRKk9l3YKuYOQQODkug-2" target="kWydDfq1rh9on7qYREXL-10" edge="1">
          <mxGeometry relative="1" as="geometry">
            <mxPoint x="265" y="100" as="sourcePoint" />
            <mxPoint x="-485" y="180" as="targetPoint" />
          </mxGeometry>
        </mxCell>
        <mxCell id="kWydDfq1rh9on7qYREXL-33" style="rounded=0;orthogonalLoop=1;jettySize=auto;html=1;startArrow=circlePlus;startFill=0;endArrow=none;endFill=0;exitX=0.5;exitY=1;exitDx=0;exitDy=0;entryX=0.5;entryY=0;entryDx=0;entryDy=0;" parent="mcRKk9l3YKuYOQQODkug-1" source="mcRKk9l3YKuYOQQODkug-2" target="kWydDfq1rh9on7qYREXL-11" edge="1">
          <mxGeometry relative="1" as="geometry">
            <mxPoint x="323" y="100" as="sourcePoint" />
            <mxPoint x="15" y="180" as="targetPoint" />
          </mxGeometry>
        </mxCell>
        <mxCell id="kWydDfq1rh9on7qYREXL-34" style="rounded=0;orthogonalLoop=1;jettySize=auto;html=1;startArrow=circlePlus;startFill=0;endArrow=none;endFill=0;exitX=0.75;exitY=1;exitDx=0;exitDy=0;entryX=0.25;entryY=0;entryDx=0;entryDy=0;" parent="mcRKk9l3YKuYOQQODkug-1" source="mcRKk9l3YKuYOQQODkug-2" target="kWydDfq1rh9on7qYREXL-12" edge="1">
          <mxGeometry relative="1" as="geometry">
            <mxPoint x="840" y="60" as="sourcePoint" />
            <mxPoint x="878" y="140" as="targetPoint" />
          </mxGeometry>
        </mxCell>
        <mxCell id="kWydDfq1rh9on7qYREXL-35" style="rounded=0;orthogonalLoop=1;jettySize=auto;html=1;startArrow=circlePlus;startFill=0;endArrow=none;endFill=0;exitX=1;exitY=0.75;exitDx=0;exitDy=0;entryX=0;entryY=0;entryDx=0;entryDy=0;" parent="mcRKk9l3YKuYOQQODkug-1" source="mcRKk9l3YKuYOQQODkug-2" target="kWydDfq1rh9on7qYREXL-13" edge="1">
          <mxGeometry relative="1" as="geometry">
            <mxPoint x="550" y="40" as="sourcePoint" />
            <mxPoint x="972" y="120" as="targetPoint" />
          </mxGeometry>
        </mxCell>
        <mxCell id="kWydDfq1rh9on7qYREXL-37" style="rounded=0;orthogonalLoop=1;jettySize=auto;html=1;startArrow=circlePlus;startFill=0;endArrow=none;endFill=0;exitX=1;exitY=0.5;exitDx=0;exitDy=0;entryX=0;entryY=0;entryDx=0;entryDy=0;" parent="mcRKk9l3YKuYOQQODkug-1" source="mcRKk9l3YKuYOQQODkug-2" target="kWydDfq1rh9on7qYREXL-14" edge="1">
          <mxGeometry relative="1" as="geometry">
            <mxPoint x="570" y="-27" as="sourcePoint" />
            <mxPoint x="1350" y="90" as="targetPoint" />
          </mxGeometry>
        </mxCell>
        <mxCell id="kWydDfq1rh9on7qYREXL-38" style="rounded=0;orthogonalLoop=1;jettySize=auto;html=1;startArrow=circlePlus;startFill=0;endArrow=none;endFill=0;entryX=0;entryY=0.5;entryDx=0;entryDy=0;exitX=1;exitY=0.25;exitDx=0;exitDy=0;" parent="mcRKk9l3YKuYOQQODkug-1" source="mcRKk9l3YKuYOQQODkug-2" target="kWydDfq1rh9on7qYREXL-15" edge="1">
          <mxGeometry relative="1" as="geometry">
            <mxPoint x="1000" y="-20" as="sourcePoint" />
            <mxPoint x="2018" y="145" as="targetPoint" />
          </mxGeometry>
        </mxCell>
        <mxCell id="kWydDfq1rh9on7qYREXL-40" style="rounded=0;orthogonalLoop=1;jettySize=auto;html=1;startArrow=circlePlus;startFill=0;endArrow=none;endFill=0;entryX=0.5;entryY=1;entryDx=0;entryDy=0;exitX=0.5;exitY=0;exitDx=0;exitDy=0;" parent="mcRKk9l3YKuYOQQODkug-1" source="mcRKk9l3YKuYOQQODkug-2" target="kWydDfq1rh9on7qYREXL-17" edge="1">
          <mxGeometry relative="1" as="geometry">
            <mxPoint x="1870" y="-40" as="sourcePoint" />
            <mxPoint x="2948" y="125" as="targetPoint" />
          </mxGeometry>
        </mxCell>
        <mxCell id="NJ4r-btPFasgyIgzd2Xu-0" value="&amp;lt;&amp;lt;refine&amp;gt;&amp;gt;" style="edgeStyle=none;html=1;endArrow=open;endSize=12;dashed=1;verticalAlign=bottom;entryX=0.25;entryY=1;entryDx=0;entryDy=0;exitX=0.5;exitY=0;exitDx=0;exitDy=0;" edge="1" parent="mcRKk9l3YKuYOQQODkug-1" source="kWydDfq1rh9on7qYREXL-20" target="kWydDfq1rh9on7qYREXL-10">
          <mxGeometry x="-0.1429" y="30" width="160" relative="1" as="geometry">
            <mxPoint x="-150" y="910" as="sourcePoint" />
            <mxPoint x="-40" y="880" as="targetPoint" />
            <mxPoint as="offset" />
          </mxGeometry>
        </mxCell>
        <mxCell id="NJ4r-btPFasgyIgzd2Xu-1" value="&amp;lt;&amp;lt;verify&amp;gt;&amp;gt;" style="edgeStyle=none;html=1;endArrow=open;endSize=12;dashed=1;verticalAlign=bottom;entryX=0.75;entryY=1;entryDx=0;entryDy=0;exitX=0.5;exitY=0;exitDx=0;exitDy=0;" edge="1" parent="mcRKk9l3YKuYOQQODkug-1" source="kWydDfq1rh9on7qYREXL-21" target="kWydDfq1rh9on7qYREXL-10">
          <mxGeometry x="-0.3144" y="-12" width="160" relative="1" as="geometry">
            <mxPoint x="90" y="950" as="sourcePoint" />
            <mxPoint x="70.00333333333322" y="870" as="targetPoint" />
            <mxPoint as="offset" />
          </mxGeometry>
        </mxCell>
        <mxCell id="NJ4r-btPFasgyIgzd2Xu-2" value="&amp;lt;&amp;lt;refine&amp;gt;&amp;gt;" style="edgeStyle=none;html=1;endArrow=open;endSize=12;dashed=1;verticalAlign=bottom;entryX=0.25;entryY=1;entryDx=0;entryDy=0;exitX=0.5;exitY=0;exitDx=0;exitDy=0;" edge="1" parent="mcRKk9l3YKuYOQQODkug-1" source="kWydDfq1rh9on7qYREXL-22" target="kWydDfq1rh9on7qYREXL-11">
          <mxGeometry x="-0.1429" y="30" width="160" relative="1" as="geometry">
            <mxPoint x="445" y="930" as="sourcePoint" />
            <mxPoint x="445" y="860" as="targetPoint" />
            <mxPoint as="offset" />
          </mxGeometry>
        </mxCell>
        <mxCell id="NJ4r-btPFasgyIgzd2Xu-3" value="&amp;lt;&amp;lt;verify&amp;gt;&amp;gt;" style="edgeStyle=none;html=1;endArrow=open;endSize=12;dashed=1;verticalAlign=bottom;entryX=0.75;entryY=1;entryDx=0;entryDy=0;exitX=0.5;exitY=0;exitDx=0;exitDy=0;" edge="1" parent="mcRKk9l3YKuYOQQODkug-1" source="kWydDfq1rh9on7qYREXL-23" target="kWydDfq1rh9on7qYREXL-11">
          <mxGeometry x="-0.3144" y="-12" width="160" relative="1" as="geometry">
            <mxPoint x="625" y="930" as="sourcePoint" />
            <mxPoint x="605.0033333333332" y="850" as="targetPoint" />
            <mxPoint as="offset" />
          </mxGeometry>
        </mxCell>
        <mxCell id="NJ4r-btPFasgyIgzd2Xu-4" value="&lt;p style=&quot;margin: 0px ; margin-top: 4px ; text-align: center&quot;&gt;&amp;lt;&amp;lt;requirement&amp;gt;&amp;gt;&lt;br&gt;&lt;b&gt;Dashboard d&#39;administration&lt;/b&gt;&lt;/p&gt;&lt;hr&gt;&lt;p&gt;&lt;/p&gt;&lt;p style=&quot;margin: 0px ; margin-left: 8px ; text-align: left&quot;&gt;Id=&quot;5.3.&quot;&lt;br&gt;&lt;/p&gt;&lt;p style=&quot;margin: 0px ; margin-left: 8px ; text-align: left&quot;&gt;text=&quot;Le tableau de bord doit être testé pour vérifier qu&#39;il permet les modifications prévues.&lt;span&gt;&quot;&lt;/span&gt;&lt;/p&gt;&lt;p style=&quot;margin: 0px ; margin-left: 8px ; text-align: left&quot;&gt;&lt;br&gt;&lt;/p&gt;" style="shape=rect;overflow=fill;html=1;whiteSpace=wrap;align=center;strokeWidth=1;fillColor=#fad9d5;strokeColor=#ae4132;gradientColor=#ffffff;" vertex="1" parent="mcRKk9l3YKuYOQQODkug-1">
          <mxGeometry x="1383" y="920" width="170" height="150" as="geometry" />
        </mxCell>
        <mxCell id="NJ4r-btPFasgyIgzd2Xu-5" value="&amp;lt;&amp;lt;verify&amp;gt;&amp;gt;" style="edgeStyle=none;html=1;endArrow=open;endSize=12;dashed=1;verticalAlign=bottom;entryX=0.25;entryY=1;entryDx=0;entryDy=0;exitX=0.5;exitY=0;exitDx=0;exitDy=0;" edge="1" parent="mcRKk9l3YKuYOQQODkug-1" source="kWydDfq1rh9on7qYREXL-24" target="kWydDfq1rh9on7qYREXL-12">
          <mxGeometry x="-0.3263" y="-12" width="160" relative="1" as="geometry">
            <mxPoint x="970" y="890" as="sourcePoint" />
            <mxPoint x="950.0033333333331" y="810" as="targetPoint" />
            <mxPoint as="offset" />
          </mxGeometry>
        </mxCell>
        <mxCell id="NJ4r-btPFasgyIgzd2Xu-6" value="&amp;lt;&amp;lt;refine&amp;gt;&amp;gt;" style="edgeStyle=none;html=1;endArrow=open;endSize=12;dashed=1;verticalAlign=bottom;entryX=0.5;entryY=1;entryDx=0;entryDy=0;exitX=0.5;exitY=0;exitDx=0;exitDy=0;" edge="1" parent="mcRKk9l3YKuYOQQODkug-1" source="kWydDfq1rh9on7qYREXL-25" target="kWydDfq1rh9on7qYREXL-12">
          <mxGeometry x="-0.1429" y="30" width="160" relative="1" as="geometry">
            <mxPoint x="1190" y="910" as="sourcePoint" />
            <mxPoint x="1190" y="840" as="targetPoint" />
            <mxPoint as="offset" />
          </mxGeometry>
        </mxCell>
        <mxCell id="NJ4r-btPFasgyIgzd2Xu-7" value="&amp;lt;&amp;lt;verify&amp;gt;&amp;gt;" style="edgeStyle=none;html=1;endArrow=open;endSize=12;dashed=1;verticalAlign=bottom;exitX=0.25;exitY=0;exitDx=0;exitDy=0;entryX=0.75;entryY=1;entryDx=0;entryDy=0;" edge="1" parent="mcRKk9l3YKuYOQQODkug-1" source="NJ4r-btPFasgyIgzd2Xu-4" target="kWydDfq1rh9on7qYREXL-12">
          <mxGeometry x="-0.3263" y="-12" width="160" relative="1" as="geometry">
            <mxPoint x="1333" y="760" as="sourcePoint" />
            <mxPoint x="1313.003333333333" y="680" as="targetPoint" />
            <mxPoint as="offset" />
          </mxGeometry>
        </mxCell>
        <mxCell id="NJ4r-btPFasgyIgzd2Xu-9" value="&lt;p style=&quot;margin: 0px ; margin-top: 4px ; text-align: center&quot;&gt;&amp;lt;&amp;lt;requirement&amp;gt;&amp;gt;&lt;br&gt;&lt;span style=&quot;font-size: 12px;&quot;&gt;&lt;b&gt;Automatisation des sauvegardes&lt;/b&gt;&lt;/span&gt;&lt;/p&gt;&lt;hr&gt;&lt;p&gt;&lt;/p&gt;&lt;p style=&quot;margin: 0px ; margin-left: 8px ; text-align: left&quot;&gt;Id=&quot;9.1.&quot;&lt;br&gt;&lt;/p&gt;&lt;p style=&quot;margin: 0px ; margin-left: 8px ; text-align: left&quot;&gt;text=&quot;&lt;span style=&quot;background-color: transparent;&quot;&gt;Implémenter un système automatisé de sauvegarde en réponse aux exigences de continuité de service et de protection des données.&lt;/span&gt;&lt;/p&gt;&lt;p style=&quot;margin: 0px ; margin-left: 8px ; text-align: left&quot;&gt;&lt;span&gt;&quot;&lt;/span&gt;&lt;/p&gt;&lt;p style=&quot;margin: 0px ; margin-left: 8px ; text-align: left&quot;&gt;&lt;br&gt;&lt;/p&gt;" style="shape=rect;overflow=fill;html=1;whiteSpace=wrap;align=center;strokeWidth=1;fillColor=#fad9d5;strokeColor=#ae4132;gradientColor=#ffffff;" vertex="1" parent="mcRKk9l3YKuYOQQODkug-1">
          <mxGeometry x="890" y="-500" width="220" height="150" as="geometry" />
        </mxCell>
        <mxCell id="NJ4r-btPFasgyIgzd2Xu-10" value="&amp;lt;&amp;lt;verify&amp;gt;&amp;gt;" style="edgeStyle=none;html=1;endArrow=open;endSize=12;dashed=1;verticalAlign=bottom;entryX=1;entryY=0.25;entryDx=0;entryDy=0;exitX=0;exitY=0.5;exitDx=0;exitDy=0;" edge="1" parent="mcRKk9l3YKuYOQQODkug-1" source="kWydDfq1rh9on7qYREXL-27" target="kWydDfq1rh9on7qYREXL-15">
          <mxGeometry x="-0.4408" y="83" width="160" relative="1" as="geometry">
            <mxPoint x="1440" y="50" as="sourcePoint" />
            <mxPoint x="1460.003333333333" y="-10" as="targetPoint" />
            <mxPoint y="1" as="offset" />
          </mxGeometry>
        </mxCell>
        <mxCell id="NJ4r-btPFasgyIgzd2Xu-11" value="&amp;lt;&amp;lt;verify&amp;gt;&amp;gt;" style="edgeStyle=none;html=1;endArrow=open;endSize=12;dashed=1;verticalAlign=bottom;entryX=0.75;entryY=0;entryDx=0;entryDy=0;exitX=0;exitY=0.75;exitDx=0;exitDy=0;" edge="1" parent="mcRKk9l3YKuYOQQODkug-1" source="kWydDfq1rh9on7qYREXL-26" target="kWydDfq1rh9on7qYREXL-15">
          <mxGeometry x="-0.3263" y="-12" width="160" relative="1" as="geometry">
            <mxPoint x="1250" y="90" as="sourcePoint" />
            <mxPoint x="1230.003333333333" y="10" as="targetPoint" />
            <mxPoint as="offset" />
          </mxGeometry>
        </mxCell>
        <mxCell id="NJ4r-btPFasgyIgzd2Xu-12" value="&amp;lt;&amp;lt;refine&amp;gt;&amp;gt;" style="edgeStyle=none;html=1;endArrow=open;endSize=12;dashed=1;verticalAlign=bottom;exitX=0;exitY=0.5;exitDx=0;exitDy=0;entryX=1;entryY=0.75;entryDx=0;entryDy=0;" edge="1" parent="mcRKk9l3YKuYOQQODkug-1" source="kWydDfq1rh9on7qYREXL-28" target="kWydDfq1rh9on7qYREXL-15">
          <mxGeometry x="-0.1429" y="30" width="160" relative="1" as="geometry">
            <mxPoint x="1640" y="20" as="sourcePoint" />
            <mxPoint x="1640" y="-50" as="targetPoint" />
            <mxPoint as="offset" />
          </mxGeometry>
        </mxCell>
        <mxCell id="NJ4r-btPFasgyIgzd2Xu-14" value="&amp;lt;&amp;lt;deriveRqt&amp;gt;&amp;gt;" style="edgeStyle=none;html=1;endArrow=open;endSize=12;dashed=1;verticalAlign=bottom;entryX=0.25;entryY=0;entryDx=0;entryDy=0;exitX=0.5;exitY=1;exitDx=0;exitDy=0;" edge="1" parent="mcRKk9l3YKuYOQQODkug-1" source="NJ4r-btPFasgyIgzd2Xu-9" target="kWydDfq1rh9on7qYREXL-16">
          <mxGeometry x="0.4003" y="10" width="160" relative="1" as="geometry">
            <mxPoint x="930" y="-130" as="sourcePoint" />
            <mxPoint x="930" y="-210" as="targetPoint" />
            <mxPoint x="1" as="offset" />
          </mxGeometry>
        </mxCell>
        <mxCell id="NJ4r-btPFasgyIgzd2Xu-15" value="&amp;lt;&amp;lt;verify&amp;gt;&amp;gt;" style="edgeStyle=none;html=1;endArrow=open;endSize=12;dashed=1;verticalAlign=bottom;exitX=0.25;exitY=1;exitDx=0;exitDy=0;entryX=0.75;entryY=0;entryDx=0;entryDy=0;" edge="1" parent="mcRKk9l3YKuYOQQODkug-1" source="kWydDfq1rh9on7qYREXL-29" target="kWydDfq1rh9on7qYREXL-16">
          <mxGeometry x="0.3521" y="-8" width="160" relative="1" as="geometry">
            <mxPoint x="1280" y="-120" as="sourcePoint" />
            <mxPoint x="1260.003333333333" y="-200" as="targetPoint" />
            <mxPoint as="offset" />
          </mxGeometry>
        </mxCell>
        <mxCell id="NJ4r-btPFasgyIgzd2Xu-16" value="&amp;lt;&amp;lt;verify&amp;gt;&amp;gt;" style="edgeStyle=none;html=1;endArrow=open;endSize=12;dashed=1;verticalAlign=bottom;exitX=0.5;exitY=1;exitDx=0;exitDy=0;entryX=0.5;entryY=0;entryDx=0;entryDy=0;" edge="1" parent="mcRKk9l3YKuYOQQODkug-1" source="kWydDfq1rh9on7qYREXL-30" target="kWydDfq1rh9on7qYREXL-17">
          <mxGeometry x="-0.3263" y="-12" width="160" relative="1" as="geometry">
            <mxPoint x="580" y="-360" as="sourcePoint" />
            <mxPoint x="720" y="-570" as="targetPoint" />
            <mxPoint as="offset" />
          </mxGeometry>
        </mxCell>
        <mxCell id="NJ4r-btPFasgyIgzd2Xu-17" value="&amp;lt;&amp;lt;refine&amp;gt;&amp;gt;" style="edgeStyle=none;html=1;endArrow=open;endSize=12;dashed=1;verticalAlign=bottom;exitX=0.25;exitY=1;exitDx=0;exitDy=0;entryX=0.75;entryY=0;entryDx=0;entryDy=0;" edge="1" parent="mcRKk9l3YKuYOQQODkug-1" source="kWydDfq1rh9on7qYREXL-31" target="kWydDfq1rh9on7qYREXL-17">
          <mxGeometry x="-0.1429" y="30" width="160" relative="1" as="geometry">
            <mxPoint x="870" y="-360" as="sourcePoint" />
            <mxPoint x="870" y="-430" as="targetPoint" />
            <mxPoint as="offset" />
          </mxGeometry>
        </mxCell>
        <mxCell id="kWydDfq1rh9on7qYREXL-14" value="&lt;p style=&quot;margin: 0px ; margin-top: 4px ; text-align: center&quot;&gt;&amp;lt;&amp;lt;requirement&amp;gt;&amp;gt;&lt;br&gt;&lt;b&gt;&amp;nbsp;&lt;/b&gt;&lt;span style=&quot;background-color: transparent;&quot;&gt;&lt;b&gt;Respect des contraintes de qualité&lt;/b&gt;&lt;/span&gt;&lt;/p&gt;&lt;hr&gt;&lt;p&gt;&lt;/p&gt;&lt;p style=&quot;margin: 0px ; margin-left: 8px ; text-align: left&quot;&gt;Id=&quot;7&quot;&lt;br&gt;&lt;/p&gt;&lt;p style=&quot;margin: 0px ; margin-left: 8px ; text-align: left&quot;&gt;text=&quot;La documentation du projet doit être complète et conforme aux normes.&lt;span&gt;&quot;&lt;/span&gt;&lt;/p&gt;&lt;p style=&quot;margin: 0px ; margin-left: 8px ; text-align: left&quot;&gt;&lt;br&gt;&lt;/p&gt;" style="shape=rect;overflow=fill;html=1;whiteSpace=wrap;align=center;strokeWidth=1;fillColor=#fad9d5;strokeColor=#ae4132;gradientColor=#ffffff;" parent="mcRKk9l3YKuYOQQODkug-1" vertex="1">
          <mxGeometry x="1400" y="340" width="230" height="150" as="geometry" />
        </mxCell>
        <mxCell id="NJ4r-btPFasgyIgzd2Xu-21" style="rounded=0;orthogonalLoop=1;jettySize=auto;html=1;startArrow=circlePlus;startFill=0;endArrow=none;endFill=0;entryX=0.5;entryY=1;entryDx=0;entryDy=0;exitX=0.75;exitY=0;exitDx=0;exitDy=0;" edge="1" parent="mcRKk9l3YKuYOQQODkug-1" source="mcRKk9l3YKuYOQQODkug-2" target="kWydDfq1rh9on7qYREXL-16">
          <mxGeometry relative="1" as="geometry">
            <mxPoint x="460" y="-107" as="sourcePoint" />
            <mxPoint x="877" y="-240" as="targetPoint" />
          </mxGeometry>
        </mxCell>
        <mxCell id="NJ4r-btPFasgyIgzd2Xu-22" value="&lt;p style=&quot;margin: 0px ; margin-top: 4px ; text-align: center&quot;&gt;&amp;lt;&amp;lt;requirement&amp;gt;&amp;gt;&lt;br&gt;&lt;b&gt;Initiatives environnementales&lt;/b&gt;&lt;/p&gt;&lt;hr&gt;&lt;p&gt;&lt;/p&gt;&lt;p style=&quot;margin: 0px ; margin-left: 8px ; text-align: left&quot;&gt;Id=&quot;11&quot;&lt;br&gt;&lt;/p&gt;&lt;p style=&quot;margin: 0px ; margin-left: 8px ; text-align: left&quot;&gt;text=&quot;Mettre en œuvre des actions pour réduire l&#39;impact environnemental et promouvoir des pratiques durables.&lt;span&gt;&quot;&lt;/span&gt;&lt;/p&gt;&lt;p style=&quot;margin: 0px ; margin-left: 8px ; text-align: left&quot;&gt;&lt;br&gt;&lt;/p&gt;" style="shape=rect;overflow=fill;html=1;whiteSpace=wrap;align=center;strokeWidth=1;fillColor=#fad9d5;strokeColor=#ae4132;gradientColor=#ffffff;rounded=0;" vertex="1" parent="mcRKk9l3YKuYOQQODkug-1">
          <mxGeometry x="260" y="-660" width="230" height="150" as="geometry" />
        </mxCell>
        <mxCell id="NJ4r-btPFasgyIgzd2Xu-23" value="&lt;p style=&quot;margin: 0px ; margin-top: 4px ; text-align: center&quot;&gt;&amp;lt;&amp;lt;requirement&amp;gt;&amp;gt;&lt;br&gt;&lt;b&gt;Utilisation de matériaux recyclables&lt;/b&gt;&lt;/p&gt;&lt;hr&gt;&lt;p&gt;&lt;/p&gt;&lt;p style=&quot;margin: 0px ; margin-left: 8px ; text-align: left&quot;&gt;Id=&quot;11.2.&quot;&lt;br&gt;&lt;/p&gt;&lt;p style=&quot;margin: 0px ; margin-left: 8px ; text-align: left&quot;&gt;text=&quot;Préférer des matériaux recyclables ou biodégradables pour les équipements physiques et les emballages.&lt;span&gt;&quot;&lt;/span&gt;&lt;/p&gt;&lt;p style=&quot;margin: 0px ; margin-left: 8px ; text-align: left&quot;&gt;&lt;br&gt;&lt;/p&gt;" style="shape=rect;overflow=fill;html=1;whiteSpace=wrap;align=center;strokeWidth=1;fillColor=#fad9d5;strokeColor=#ae4132;gradientColor=#ffffff;" vertex="1" parent="mcRKk9l3YKuYOQQODkug-1">
          <mxGeometry x="470" y="-1010" width="220" height="170" as="geometry" />
        </mxCell>
        <mxCell id="NJ4r-btPFasgyIgzd2Xu-24" value="&lt;p style=&quot;margin: 0px ; margin-top: 4px ; text-align: center&quot;&gt;&amp;lt;&amp;lt;requirement&amp;gt;&amp;gt;&lt;br&gt;&lt;b&gt;&amp;nbsp;Réduction de l&#39;empreinte écologique&lt;/b&gt;&lt;/p&gt;&lt;hr&gt;&lt;p&gt;&lt;/p&gt;&lt;p style=&quot;margin: 0px ; margin-left: 8px ; text-align: left&quot;&gt;Id=&quot;11.1.&quot;&lt;br&gt;&lt;/p&gt;&lt;p style=&quot;margin: 0px ; margin-left: 8px ; text-align: left&quot;&gt;text=&quot;Utiliser des équipements à faible consommation d&#39;énergie (par exemple, tablettes à haute efficacité énergétique).&lt;span&gt;&quot;&lt;/span&gt;&lt;/p&gt;&lt;p style=&quot;margin: 0px ; margin-left: 8px ; text-align: left&quot;&gt;&lt;br&gt;&lt;/p&gt;" style="shape=rect;overflow=fill;html=1;whiteSpace=wrap;align=center;strokeWidth=1;fillColor=#fad9d5;strokeColor=#ae4132;gradientColor=#ffffff;" vertex="1" parent="mcRKk9l3YKuYOQQODkug-1">
          <mxGeometry x="140" y="-1000" width="220" height="150" as="geometry" />
        </mxCell>
        <mxCell id="NJ4r-btPFasgyIgzd2Xu-25" value="&amp;lt;&amp;lt;verify&amp;gt;&amp;gt;" style="edgeStyle=none;html=1;endArrow=open;endSize=12;dashed=1;verticalAlign=bottom;exitX=0.5;exitY=1;exitDx=0;exitDy=0;entryX=1;entryY=0;entryDx=0;entryDy=0;" edge="1" parent="mcRKk9l3YKuYOQQODkug-1" source="NJ4r-btPFasgyIgzd2Xu-23" target="NJ4r-btPFasgyIgzd2Xu-22">
          <mxGeometry x="-0.3263" y="-12" width="160" relative="1" as="geometry">
            <mxPoint x="90" y="-340" as="sourcePoint" />
            <mxPoint x="120" y="-482" as="targetPoint" />
            <mxPoint as="offset" />
          </mxGeometry>
        </mxCell>
        <mxCell id="NJ4r-btPFasgyIgzd2Xu-32" value="&lt;p style=&quot;margin: 0px ; margin-top: 4px ; text-align: center&quot;&gt;&amp;lt;&amp;lt;requirement&amp;gt;&amp;gt;&lt;br&gt;&lt;b&gt;&amp;nbsp;&lt;/b&gt;&lt;span style=&quot;background-color: transparent;&quot;&gt;&lt;b&gt;Optimisation énergétique&lt;/b&gt;&lt;/span&gt;&lt;/p&gt;&lt;hr&gt;&lt;p&gt;&lt;/p&gt;&lt;p style=&quot;margin: 0px ; margin-left: 8px ; text-align: left&quot;&gt;Id=&quot;12&quot;&lt;br&gt;&lt;/p&gt;&lt;p style=&quot;margin: 0px ; margin-left: 8px ; text-align: left&quot;&gt;text=&quot;&lt;span style=&quot;background-color: transparent;&quot;&gt;Réduire la consommation énergétique globale et améliorer l&#39;efficacité des équipements utilisés.&lt;/span&gt;&lt;span style=&quot;background-color: transparent; color: light-dark(rgb(0, 0, 0), rgb(255, 255, 255));&quot;&gt;&quot;&lt;/span&gt;&lt;/p&gt;&lt;p style=&quot;margin: 0px ; margin-left: 8px ; text-align: left&quot;&gt;&lt;br&gt;&lt;/p&gt;" style="shape=rect;overflow=fill;html=1;whiteSpace=wrap;align=center;strokeWidth=1;fillColor=#fad9d5;strokeColor=#ae4132;gradientColor=#ffffff;" vertex="1" parent="mcRKk9l3YKuYOQQODkug-1">
          <mxGeometry x="-110" y="-560" width="230" height="150" as="geometry" />
        </mxCell>
        <mxCell id="NJ4r-btPFasgyIgzd2Xu-33" value="&lt;p style=&quot;margin: 0px ; margin-top: 4px ; text-align: center&quot;&gt;&amp;lt;&amp;lt;requirement&amp;gt;&amp;gt;&lt;br&gt;&lt;b&gt;Optimisation de la consommation énergétique&lt;/b&gt;&lt;/p&gt;&lt;hr&gt;&lt;p&gt;&lt;/p&gt;&lt;p style=&quot;margin: 0px ; margin-left: 8px ; text-align: left&quot;&gt;Id=&quot;12.1.&quot;&lt;br&gt;&lt;/p&gt;&lt;p style=&quot;margin: 0px ; margin-left: 8px ; text-align: left&quot;&gt;text=&quot;&lt;span style=&quot;background-color: transparent; text-align: center;&quot;&gt;Configurer des mécanismes de veille automatique pour réduire la consommation en cas d&#39;inactivité des équipements (serveur, tablettes)&quot;&lt;/span&gt;&lt;/p&gt;&lt;p style=&quot;margin: 0px ; margin-left: 8px ; text-align: left&quot;&gt;&lt;br&gt;&lt;/p&gt;" style="shape=rect;overflow=fill;html=1;whiteSpace=wrap;align=center;strokeWidth=1;fillColor=#fad9d5;strokeColor=#ae4132;gradientColor=#ffffff;" vertex="1" parent="mcRKk9l3YKuYOQQODkug-1">
          <mxGeometry x="-520" y="-790" width="270" height="150" as="geometry" />
        </mxCell>
        <mxCell id="NJ4r-btPFasgyIgzd2Xu-34" value="&lt;p style=&quot;margin: 0px ; margin-top: 4px ; text-align: center&quot;&gt;&amp;lt;&amp;lt;requirement&amp;gt;&amp;gt;&lt;br&gt;&lt;b&gt;&amp;nbsp;Utilisation de technologies économes en énergie&lt;/b&gt;&lt;/p&gt;&lt;hr&gt;&lt;p&gt;&lt;/p&gt;&lt;p style=&quot;margin: 0px ; margin-left: 8px ; text-align: left&quot;&gt;Id=&quot;12.2.&quot;&lt;br&gt;&lt;/p&gt;&lt;p style=&quot;margin: 0px ; margin-left: 8px ; text-align: left&quot;&gt;text=&quot;&lt;span style=&quot;background-color: transparent; text-align: center;&quot;&gt;Intégrer des équipements réseau (routeurs, switches) optimisés pour minimiser la consommation énergétique.&quot;&lt;/span&gt;&lt;/p&gt;&lt;p style=&quot;margin: 0px ; margin-left: 8px ; text-align: left&quot;&gt;&lt;br&gt;&lt;/p&gt;" style="shape=rect;overflow=fill;html=1;whiteSpace=wrap;align=center;strokeWidth=1;fillColor=#fad9d5;strokeColor=#ae4132;gradientColor=#ffffff;" vertex="1" parent="mcRKk9l3YKuYOQQODkug-1">
          <mxGeometry x="-490" y="-1000" width="210" height="150" as="geometry" />
        </mxCell>
        <mxCell id="NJ4r-btPFasgyIgzd2Xu-35" value="&lt;p style=&quot;margin: 0px ; margin-top: 4px ; text-align: center&quot;&gt;&amp;lt;&amp;lt;requirement&amp;gt;&amp;gt;&lt;br&gt;&lt;b&gt;Maintenance préventive pour réduire la surchauffe&lt;/b&gt;&lt;/p&gt;&lt;hr&gt;&lt;p&gt;&lt;/p&gt;&lt;p style=&quot;margin: 0px ; margin-left: 8px ; text-align: left&quot;&gt;Id=&quot;12.3.&quot;&lt;br&gt;&lt;/p&gt;&lt;p style=&quot;margin: 0px ; margin-left: 8px ; text-align: left&quot;&gt;text=&quot;Mettre en place des procédures de maintenance régulières pour garantir une utilisation efficace des ressources.&lt;span&gt;&quot;&lt;/span&gt;&lt;/p&gt;&lt;p style=&quot;margin: 0px ; margin-left: 8px ; text-align: left&quot;&gt;&lt;br&gt;&lt;/p&gt;" style="shape=rect;overflow=fill;html=1;whiteSpace=wrap;align=center;strokeWidth=1;fillColor=#fad9d5;strokeColor=#ae4132;gradientColor=#ffffff;" vertex="1" parent="mcRKk9l3YKuYOQQODkug-1">
          <mxGeometry x="-200" y="-1000" width="220" height="150" as="geometry" />
        </mxCell>
        <mxCell id="NJ4r-btPFasgyIgzd2Xu-39" value="&lt;p style=&quot;margin: 0px ; margin-top: 4px ; text-align: center&quot;&gt;&amp;lt;&amp;lt;requirement&amp;gt;&amp;gt;&lt;br&gt;&lt;b&gt;&amp;nbsp;&lt;/b&gt;&lt;span style=&quot;background-color: transparent;&quot;&gt;&lt;b&gt;Initiatives marketing&lt;/b&gt;&lt;/span&gt;&lt;/p&gt;&lt;hr&gt;&lt;p&gt;&lt;/p&gt;&lt;p style=&quot;margin: 0px ; margin-left: 8px ; text-align: left&quot;&gt;Id=&quot;13&quot;&lt;br&gt;&lt;/p&gt;&lt;p style=&quot;margin: 0px ; margin-left: 8px ; text-align: left&quot;&gt;text=&quot;Développer des stratégies marketing pour améliorer l&#39;engagement des clients et promouvoir le restaurant.&lt;span&gt;&quot;&lt;/span&gt;&lt;/p&gt;&lt;p style=&quot;margin: 0px ; margin-left: 8px ; text-align: left&quot;&gt;&lt;br&gt;&lt;/p&gt;" style="shape=rect;overflow=fill;html=1;whiteSpace=wrap;align=center;strokeWidth=1;fillColor=#fad9d5;strokeColor=#ae4132;gradientColor=#ffffff;" vertex="1" parent="mcRKk9l3YKuYOQQODkug-1">
          <mxGeometry x="-330" y="-340" width="230" height="150" as="geometry" />
        </mxCell>
        <mxCell id="NJ4r-btPFasgyIgzd2Xu-40" value="&lt;p style=&quot;margin: 0px ; margin-top: 4px ; text-align: center&quot;&gt;&amp;lt;&amp;lt;requirement&amp;gt;&amp;gt;&lt;br&gt;&lt;b&gt;Intégration des avis clients&lt;/b&gt;&lt;/p&gt;&lt;hr&gt;&lt;p&gt;&lt;/p&gt;&lt;p style=&quot;margin: 0px ; margin-left: 8px ; text-align: left&quot;&gt;Id=&quot;13.1.&quot;&lt;br&gt;&lt;/p&gt;&lt;p style=&quot;margin: 0px ; margin-left: 8px ; text-align: left&quot;&gt;text=&quot;&lt;span style=&quot;background-color: transparent; text-align: center;&quot;&gt;Fournir un espace dédié dans l&#39;application pour permettre aux clients de laisser des avis.&quot;&lt;/span&gt;&lt;/p&gt;&lt;p style=&quot;margin: 0px ; margin-left: 8px ; text-align: left&quot;&gt;&lt;br&gt;&lt;/p&gt;" style="shape=rect;overflow=fill;html=1;whiteSpace=wrap;align=center;strokeWidth=1;fillColor=#fad9d5;strokeColor=#ae4132;gradientColor=#ffffff;" vertex="1" parent="mcRKk9l3YKuYOQQODkug-1">
          <mxGeometry x="-800" y="-630" width="220" height="150" as="geometry" />
        </mxCell>
        <mxCell id="NJ4r-btPFasgyIgzd2Xu-41" value="&lt;p style=&quot;margin: 0px ; margin-top: 4px ; text-align: center&quot;&gt;&amp;lt;&amp;lt;requirement&amp;gt;&amp;gt;&lt;br&gt;&lt;b&gt;Promotions et fidélisation&lt;/b&gt;&lt;/p&gt;&lt;hr&gt;&lt;p&gt;&lt;/p&gt;&lt;p style=&quot;margin: 0px ; margin-left: 8px ; text-align: left&quot;&gt;Id=&quot;13.2.&quot;&lt;br&gt;&lt;/p&gt;&lt;p style=&quot;margin: 0px ; margin-left: 8px ; text-align: left&quot;&gt;text=&quot;Proposer des offres spéciales via l&#39;application, comme des réductions ou des points de fidélité.&lt;span&gt;&quot;&lt;/span&gt;&lt;/p&gt;&lt;p style=&quot;margin: 0px ; margin-left: 8px ; text-align: left&quot;&gt;&lt;br&gt;&lt;/p&gt;" style="shape=rect;overflow=fill;html=1;whiteSpace=wrap;align=center;strokeWidth=1;fillColor=#fad9d5;strokeColor=#ae4132;gradientColor=#ffffff;" vertex="1" parent="mcRKk9l3YKuYOQQODkug-1">
          <mxGeometry x="-800" y="-420" width="170" height="150" as="geometry" />
        </mxCell>
        <mxCell id="NJ4r-btPFasgyIgzd2Xu-42" value="&lt;p style=&quot;margin: 0px ; margin-top: 4px ; text-align: center&quot;&gt;&amp;lt;&amp;lt;requirement&amp;gt;&amp;gt;&lt;br&gt;&lt;b&gt;Partage sur les réseaux sociaux&lt;/b&gt;&lt;/p&gt;&lt;hr&gt;&lt;p&gt;&lt;/p&gt;&lt;p style=&quot;margin: 0px ; margin-left: 8px ; text-align: left&quot;&gt;Id=&quot;13.3.&quot;&lt;br&gt;&lt;/p&gt;&lt;p style=&quot;margin: 0px ; margin-left: 8px ; text-align: left&quot;&gt;text=&quot;Ajouter une fonctionnalité permettant aux utilisateurs de partager leur expérience ou des plats sur les réseaux sociaux.&lt;span&gt;&quot;&lt;/span&gt;&lt;/p&gt;&lt;p style=&quot;margin: 0px ; margin-left: 8px ; text-align: left&quot;&gt;&lt;br&gt;&lt;/p&gt;" style="shape=rect;overflow=fill;html=1;whiteSpace=wrap;align=center;strokeWidth=1;fillColor=#fad9d5;strokeColor=#ae4132;gradientColor=#ffffff;" vertex="1" parent="mcRKk9l3YKuYOQQODkug-1">
          <mxGeometry x="-840" y="-170" width="220" height="150" as="geometry" />
        </mxCell>
        <mxCell id="NJ4r-btPFasgyIgzd2Xu-44" value="&amp;lt;&amp;lt;verify&amp;gt;&amp;gt;" style="edgeStyle=none;html=1;endArrow=open;endSize=12;dashed=1;verticalAlign=bottom;entryX=0.25;entryY=0;entryDx=0;entryDy=0;exitX=1;exitY=0.75;exitDx=0;exitDy=0;" edge="1" parent="mcRKk9l3YKuYOQQODkug-1" source="NJ4r-btPFasgyIgzd2Xu-40" target="NJ4r-btPFasgyIgzd2Xu-39">
          <mxGeometry x="-0.3263" y="-12" width="160" relative="1" as="geometry">
            <mxPoint x="-930" y="-310" as="sourcePoint" />
            <mxPoint x="-949.9966666666669" y="-390" as="targetPoint" />
            <mxPoint as="offset" />
          </mxGeometry>
        </mxCell>
        <mxCell id="NJ4r-btPFasgyIgzd2Xu-46" style="rounded=0;orthogonalLoop=1;jettySize=auto;html=1;startArrow=circlePlus;startFill=0;endArrow=none;endFill=0;entryX=0.5;entryY=1;entryDx=0;entryDy=0;exitX=0.25;exitY=0;exitDx=0;exitDy=0;" edge="1" parent="mcRKk9l3YKuYOQQODkug-1" source="mcRKk9l3YKuYOQQODkug-2" target="NJ4r-btPFasgyIgzd2Xu-32">
          <mxGeometry relative="1" as="geometry">
            <mxPoint x="-245" y="-180" as="sourcePoint" />
            <mxPoint x="65" y="-460" as="targetPoint" />
          </mxGeometry>
        </mxCell>
        <mxCell id="NJ4r-btPFasgyIgzd2Xu-47" style="rounded=0;orthogonalLoop=1;jettySize=auto;html=1;startArrow=circlePlus;startFill=0;endArrow=none;endFill=0;entryX=1;entryY=0.5;entryDx=0;entryDy=0;exitX=0.25;exitY=0;exitDx=0;exitDy=0;" edge="1" parent="mcRKk9l3YKuYOQQODkug-1" source="mcRKk9l3YKuYOQQODkug-2" target="NJ4r-btPFasgyIgzd2Xu-39">
          <mxGeometry relative="1" as="geometry">
            <mxPoint x="-290" y="80" as="sourcePoint" />
            <mxPoint x="20" y="-200" as="targetPoint" />
          </mxGeometry>
        </mxCell>
        <mxCell id="NJ4r-btPFasgyIgzd2Xu-48" style="rounded=0;orthogonalLoop=1;jettySize=auto;html=1;startArrow=circlePlus;startFill=0;endArrow=none;endFill=0;entryX=0.5;entryY=1;entryDx=0;entryDy=0;exitX=0.5;exitY=0;exitDx=0;exitDy=0;" edge="1" parent="mcRKk9l3YKuYOQQODkug-1" source="mcRKk9l3YKuYOQQODkug-2" target="NJ4r-btPFasgyIgzd2Xu-22">
          <mxGeometry relative="1" as="geometry">
            <mxPoint x="90" y="-200" as="sourcePoint" />
            <mxPoint x="400" y="-480" as="targetPoint" />
          </mxGeometry>
        </mxCell>
        <mxCell id="NJ4r-btPFasgyIgzd2Xu-49" value="&amp;lt;&amp;lt;deriveRqt&amp;gt;&amp;gt;" style="edgeStyle=none;html=1;endArrow=open;endSize=12;dashed=1;verticalAlign=bottom;entryX=0.25;entryY=0;entryDx=0;entryDy=0;exitX=0.5;exitY=1;exitDx=0;exitDy=0;" edge="1" parent="mcRKk9l3YKuYOQQODkug-1" source="NJ4r-btPFasgyIgzd2Xu-24" target="NJ4r-btPFasgyIgzd2Xu-22">
          <mxGeometry x="-0.1429" y="30" width="160" relative="1" as="geometry">
            <mxPoint x="270" y="-720" as="sourcePoint" />
            <mxPoint x="270" y="-800" as="targetPoint" />
            <mxPoint as="offset" />
          </mxGeometry>
        </mxCell>
        <mxCell id="NJ4r-btPFasgyIgzd2Xu-51" value="&amp;lt;&amp;lt;refine&amp;gt;&amp;gt;" style="edgeStyle=none;html=1;endArrow=open;endSize=12;dashed=1;verticalAlign=bottom;exitX=1;exitY=0.5;exitDx=0;exitDy=0;entryX=0.25;entryY=0;entryDx=0;entryDy=0;" edge="1" parent="mcRKk9l3YKuYOQQODkug-1" source="NJ4r-btPFasgyIgzd2Xu-33" target="NJ4r-btPFasgyIgzd2Xu-32">
          <mxGeometry x="-0.1429" y="30" width="160" relative="1" as="geometry">
            <mxPoint x="-170" y="-820" as="sourcePoint" />
            <mxPoint x="-72" y="-530" as="targetPoint" />
            <mxPoint as="offset" />
          </mxGeometry>
        </mxCell>
        <mxCell id="NJ4r-btPFasgyIgzd2Xu-52" value="&amp;lt;&amp;lt;verify&amp;gt;&amp;gt;" style="edgeStyle=none;html=1;endArrow=open;endSize=12;dashed=1;verticalAlign=bottom;exitX=0.75;exitY=1;exitDx=0;exitDy=0;entryX=0.75;entryY=0;entryDx=0;entryDy=0;" edge="1" parent="mcRKk9l3YKuYOQQODkug-1" source="NJ4r-btPFasgyIgzd2Xu-35" target="NJ4r-btPFasgyIgzd2Xu-32">
          <mxGeometry x="-0.3263" y="-12" width="160" relative="1" as="geometry">
            <mxPoint x="-120" y="-757" as="sourcePoint" />
            <mxPoint x="60" y="-560" as="targetPoint" />
            <mxPoint as="offset" />
          </mxGeometry>
        </mxCell>
        <mxCell id="NJ4r-btPFasgyIgzd2Xu-53" value="&amp;lt;&amp;lt;deriveRqt&amp;gt;&amp;gt;" style="edgeStyle=none;html=1;endArrow=open;endSize=12;dashed=1;verticalAlign=bottom;exitX=1;exitY=1;exitDx=0;exitDy=0;entryX=0.5;entryY=0;entryDx=0;entryDy=0;" edge="1" parent="mcRKk9l3YKuYOQQODkug-1" source="NJ4r-btPFasgyIgzd2Xu-34" target="NJ4r-btPFasgyIgzd2Xu-32">
          <mxGeometry x="-0.1429" y="30" width="160" relative="1" as="geometry">
            <mxPoint x="-150" y="-730" as="sourcePoint" />
            <mxPoint x="-100" y="-750" as="targetPoint" />
            <mxPoint as="offset" />
          </mxGeometry>
        </mxCell>
        <mxCell id="NJ4r-btPFasgyIgzd2Xu-55" value="&amp;lt;&amp;lt;verify&amp;gt;&amp;gt;" style="edgeStyle=none;html=1;endArrow=open;endSize=12;dashed=1;verticalAlign=bottom;entryX=0;entryY=0.75;entryDx=0;entryDy=0;exitX=1;exitY=0.5;exitDx=0;exitDy=0;" edge="1" parent="mcRKk9l3YKuYOQQODkug-1" source="NJ4r-btPFasgyIgzd2Xu-42" target="NJ4r-btPFasgyIgzd2Xu-39">
          <mxGeometry x="-0.3263" y="-12" width="160" relative="1" as="geometry">
            <mxPoint x="-650" y="-367" as="sourcePoint" />
            <mxPoint x="-342" y="-190" as="targetPoint" />
            <mxPoint as="offset" />
          </mxGeometry>
        </mxCell>
        <mxCell id="NJ4r-btPFasgyIgzd2Xu-56" value="&amp;lt;&amp;lt;deriveRqt&amp;gt;&amp;gt;" style="edgeStyle=none;html=1;endArrow=open;endSize=12;dashed=1;verticalAlign=bottom;exitX=1;exitY=0.5;exitDx=0;exitDy=0;entryX=0;entryY=0.25;entryDx=0;entryDy=0;" edge="1" parent="mcRKk9l3YKuYOQQODkug-1" source="NJ4r-btPFasgyIgzd2Xu-41" target="NJ4r-btPFasgyIgzd2Xu-39">
          <mxGeometry x="-0.1429" y="30" width="160" relative="1" as="geometry">
            <mxPoint x="-620" y="-550" as="sourcePoint" />
            <mxPoint x="-335" y="-260" as="targetPoint" />
            <mxPoint as="offset" />
          </mxGeometry>
        </mxCell>
      </root>
    </mxGraphModel>
  </diagram>
</mxfile>
